<svg id="flat" height="512" viewBox="0 0 512 512" width="512" xmlns="http://www.w3.org/2000/svg"><path d="m367.59009 367.59-27.59009 68.41-124-124h-8v-72h12.12012a48.00335 48.00335 0 0 1 33.93994 14.06l45.93994 45.94z" fill="#ffbfa1"/><path d="m368 328h96.36747a16 16 0 0 1 14.85563 21.94225l-49.18845 122.97113a24 24 0 0 1 -22.28344 15.08662h-95.75121z" fill="#ffc431"/><path d="m216 240v248h-192v-180.12a67.88515 67.88515 0 0 1 67.87988-67.88z" fill="#ffbfa1"/><path d="m254.06006 254.06a48.00335 48.00335 0 0 0 -33.93994-14.06h-128.24024a67.88515 67.88515 0 0 0 -67.87988 67.88v180.12h192v-176l36 36 48-48z" fill="#548aff"/><path d="m120 208v52a36 36 0 0 0 36 36 36 36 0 0 0 36-36v-52z" fill="#ffbfa1"/><path d="m216 136v80a48 48 0 0 1 -48 48 48 48 0 0 1 -48-48v-80z" fill="#ffceb6"/><path d="m120 224-6.4-4.8a64 64 0 0 1 -25.6-51.2v-16a40 40 0 0 1 40-40 28.94424 28.94424 0 0 1 25.88851-16h22.11149a56 56 0 0 1 56 56v24h-36.22295a57.88846 57.88846 0 0 1 -51.77705-32l-5.26688 10.53377a38.82135 38.82135 0 0 1 -18.73312 18.01731z" fill="#b1712c"/><circle cx="160" cy="200" fill="#91591c" r="8"/><circle cx="192" cy="200" fill="#91591c" r="8"/><rect fill="#a36522" height="35.777" rx="8" transform="matrix(.894 -.447 .447 .894 -42.885 74.334)" width="16" x="128" y="110.111"/><path d="m216 200 16-24h-16z" fill="#a36522"/><path d="m312 488h-104a32 32 0 0 1 -32-32h152z" fill="#ffc431"/><path d="m124 348 52 52h64l24.2-12.1001a36.92507 36.92507 0 0 1 52.94014 26.9601l2.85986 17.14-24 24-24-24-48 24h-56.8a55.994 55.994 0 0 1 -39.59985-16.4l-47.60015-47.6z" fill="#ffceb6"/><path d="m342.03465 472.91338 49.18845-122.97113a16 16 0 0 0 -14.85563-21.94225h-8.36747l-64 160h15.75121a24 24 0 0 0 22.28344-15.08662z" fill="#ffd873"/><path d="m488 40v208a15.99555 15.99555 0 0 1 -16 16h-16v40l-56-40h-120a15.99555 15.99555 0 0 1 -16-16v-208a15.99552 15.99552 0 0 1 16-16h192a15.99552 15.99552 0 0 1 16 16z" fill="#91c0ff"/><path d="m488 40v32h-224v-32a15.99552 15.99552 0 0 1 16-16h192a15.99552 15.99552 0 0 1 16 16z" fill="#548aff"/><circle cx="296" cy="48" fill="#f5714f" r="8"/><circle cx="320" cy="48" fill="#ffc431" r="8"/><circle cx="344" cy="48" fill="#02c26a" r="8"/><path d="m344 160h-48a8.00008 8.00008 0 0 1 -8-8v-48a8.00008 8.00008 0 0 1 8-8h48a8.00008 8.00008 0 0 1 8 8v48a8.00008 8.00008 0 0 1 -8 8zm-40-16h32v-32h-32z" fill="#639aff"/><path d="m311.716 100h56.569v16h-56.569z" fill="#ef5e3b" transform="matrix(.707 -.707 .707 .707 23.223 272.062)"/><g fill="#639aff"><path d="m376 104h16v16h-16z"/><path d="m408 104h56v16h-56z"/><path d="m376 136h48v16h-48z"/><path d="m344 240h-48a8.00008 8.00008 0 0 1 -8-8v-48a8.00008 8.00008 0 0 1 8-8h48a8.00008 8.00008 0 0 1 8 8v48a8.00008 8.00008 0 0 1 -8 8zm-40-16h32v-32h-32z"/></g><path d="m311.716 180h56.569v16h-56.569z" fill="#ef5e3b" transform="matrix(.707 -.707 .707 .707 -33.348 295.496)"/><path d="m376 184h32v16h-32z" fill="#639aff"/><path d="m424 184h40v16h-40z" fill="#639aff"/><path d="m376 216h64v16h-64z" fill="#639aff"/><rect fill="#4f7ff7" height="50.912" rx="8" transform="matrix(.707 -.707 .707 .707 -202.299 171.608)" width="16" x="98" y="304.544"/><rect fill="#4f7ff7" height="59.949" rx="8" transform="matrix(.707 -.707 .707 .707 -244.975 150.187)" width="16" x="50.805" y="340.83"/></svg>