<svg height="504pt" viewBox="-64 0 504 504" width="504pt" xmlns="http://www.w3.org/2000/svg"><path d="m292.640625 420.640625v-.082031c9.4375-9.359375 17.199219-19.597656 23.511719-30.558594 6.558594-11.28125 11.519531-23.359375 14.808594-35.761719 3.359374-12.484375 5.039062-25.359375 5.039062-38.238281s-1.679688-25.761719-5.039062-38.320312c-3.28125-12.398438-8.242188-24.398438-14.808594-35.757813-6.3125-10.960937-14.160156-21.203125-23.511719-30.5625s-19.679687-17.28125-30.640625-23.589844c-11.28125-6.5625-23.359375-11.449219-35.679688-14.730469-12.550781-3.359374-25.449218-5.039062-38.320312-5.039062s-25.769531 1.679688-38.320312 5.039062c-12.320313 3.28125-24.398438 8.167969-35.679688 14.808594-10.960938 6.3125-21.28125 14.160156-30.640625 23.511719s-17.199219 19.679687-23.511719 30.640625c-6.558594 11.28125-11.519531 23.359375-14.808594 35.679688-3.359374 12.480468-5.039062 25.359374-5.039062 38.242187 0 12.871094 1.679688 25.757813 5.039062 38.316406 6.402344 24.320313 19.191407 47.363281 38.320313 66.402344 9.359375 9.359375 19.679687 17.199219 30.640625 23.511719 11.28125 6.558594 23.359375 11.519531 35.679688 14.808594 12.550781 3.359374 25.449218 5.039062 38.320312 5.039062s25.769531-1.679688 38.320312-5.039062c12.320313-3.28125 24.398438-8.242188 35.679688-14.808594 10.960938-6.3125 21.28125-14.152344 30.640625-23.511719zm-20.640625-340.640625s104 103.039062 104 236c0 103.921875-84.078125 188-188 188s-188-84.078125-188-188c0-206.320312 200-316 200-316s-19.839844 60.160156 7.921875 88c27.847656 27.769531 64.078125-8 64.078125-8zm0 0" fill="#fc6e51"/><path d="m160 88.871094s-68.230469 47.792968-70.574219 116.753906l135.335938-33.625c-67.664063-24.753906-64.761719-83.128906-64.761719-83.128906zm0 0" fill="#ffce54"/><path d="m316.160156 241.921875c6.558594 11.359375 11.519532 23.359375 14.808594 35.757813 3.359375 12.558593 5.039062 25.441406 5.039062 38.320312s-1.679687 25.761719-5.039062 38.238281c-3.28125 12.402344-8.242188 24.480469-14.808594 35.761719-6.3125 10.960938-14.082031 21.199219-23.511718 30.558594v.082031c-9.359376 9.359375-19.679688 17.199219-30.640626 23.511719-11.28125 6.558594-23.359374 11.519531-35.679687 14.808594-12.550781 3.359374-25.449219 5.039062-38.320313 5.039062-12.871093 0-25.769531-1.679688-38.320312-5.039062-12.320312-3.28125-24.398438-8.242188-35.679688-14.808594-10.960937-6.3125-21.28125-14.160156-30.640624-23.511719-19.128907-19.039063-31.917969-42.082031-38.320313-66.402344-3.359375-12.558593-5.039063-25.445312-5.039063-38.316406 0-12.882813 1.679688-25.769531 5.039063-38.242187 3.28125-12.320313 8.242187-24.398438 14.808594-35.679688 6.3125-10.960938 14.160156-21.28125 23.511719-30.640625 9.351562-9.359375 19.679687-17.199219 30.640624-23.511719 11.28125-6.640625 23.359376-11.519531 35.679688-14.808594 12.550781-3.359374 25.449219-5.039062 38.320312-5.039062 12.871094 0 25.769532 1.679688 38.320313 5.039062 12.320313 3.28125 24.398437 8.167969 35.679687 14.730469 10.960938 6.308594 21.28125 14.230469 30.640626 23.589844 9.359374 9.359375 17.191406 19.601563 23.511718 30.5625zm0 0" fill="#656d78"/><path d="m196.222656 307.785156c-4.503906-4.585937-11.871094-4.585937-16.453125 0-4.578125 4.496094-4.578125 11.855469 0 16.4375 2.335938 2.25 5.277344 3.417969 8.222657 3.417969 3.03125 0 5.96875-1.167969 8.222656-3.417969 4.59375-4.582031 4.59375-11.949218.007812-16.4375zm82.304688-82.3125c49.960937 50.039063 49.960937 131.023438 0 181.0625-49.953125 49.96875-131.03125 49.96875-181.0625-.070312-49.960938-49.96875-49.960938-131.039063 0-180.992188 50.039062-49.96875 131.039062-49.96875 181.0625 0zm0 0" fill="#e6e9ed"/><g fill="#434a54"><path d="m196.488281 311.519531c-1.023437 0-2.046875-.390625-2.832031-1.167969-1.558594-1.558593-1.558594-4.09375 0-5.65625l56.550781-56.558593c1.5625-1.5625 4.097657-1.5625 5.65625 0 1.5625 1.558593 1.5625 4.09375 0 5.65625l-56.550781 56.558593c-.785156.785157-1.808594 1.167969-2.824219 1.167969zm0 0"/><path d="m188 382.238281c-2.207031 0-4-1.789062-4-4v-50.238281c0-2.207031 1.792969-4 4-4s4 1.792969 4 4v50.238281c0 2.21875-1.792969 4-4 4zm0 0"/><path d="m188 168c-1.328125 0-2.648438.097656-3.976562.136719.082031 2.144531 1.808593 3.863281 3.976562 3.863281s3.894531-1.71875 3.976562-3.863281c-1.328124-.039063-2.648437-.136719-3.976562-.136719zm0 0"/><path d="m188 464c1.328125 0 2.648438-.097656 3.976562-.136719-.082031-2.144531-1.808593-3.863281-3.976562-3.863281s-3.894531 1.71875-3.976562 3.863281c1.328124.039063 2.648437.136719 3.976562.136719zm0 0"/><path d="m149.695312 173.046875c-1.28125.34375-2.527343.777344-3.808593 1.160156.632812 2.058594 2.753906 3.265625 4.832031 2.703125 2.097656-.558594 3.328125-2.671875 2.839844-4.765625-1.285156.3125-2.582032.558594-3.863282.902344zm0 0"/><path d="m226.304688 458.960938c1.289062-.34375 2.527343-.777344 3.816406-1.167969-.640625-2.050781-2.761719-3.265625-4.839844-2.703125-2.097656.558594-3.328125 2.671875-2.839844 4.765625 1.285156-.304688 2.582032-.550781 3.863282-.894531zm0 0"/><path d="m114 187.832031c-1.152344.664063-2.238281 1.398438-3.367188 2.105469 1.144532 1.824219 3.503907 2.4375 5.359376 1.359375 1.878906-1.097656 2.527343-3.449219 1.519531-5.34375-1.175781.640625-2.359375 1.214844-3.511719 1.878906zm0 0"/><path d="m262 444.175781c1.160156-.664062 2.238281-1.40625 3.382812-2.121093-1.152343-1.816407-3.503906-2.4375-5.375-1.351563-1.878906 1.089844-2.527343 3.441406-1.511718 5.335937 1.167968-.613281 2.351562-1.199218 3.503906-1.863281zm0 0"/><path d="m83.351562 211.359375c-.9375.9375-1.808593 1.929687-2.710937 2.898437 1.566406 1.460938 4.015625 1.445313 5.527344-.074218 1.535156-1.542969 1.550781-3.984375.089843-5.558594-.96875.925781-1.96875 1.800781-2.90625 2.734375zm0 0"/><path d="m292.65625 420.65625c.945312-.9375 1.808594-1.9375 2.71875-2.921875-1.574219-1.453125-4.015625-1.445313-5.535156.097656-1.535156 1.527344-1.558594 3.96875-.085938 5.535157.964844-.894532 1.964844-1.765626 2.902344-2.710938zm0 0"/><path d="m59.832031 242.015625c-.664062 1.144531-1.238281 2.328125-1.863281 3.496094 1.886719 1.007812 4.246094.359375 5.328125-1.496094 1.085937-1.894531.472656-4.246094-1.359375-5.398437-.699219 1.152343-1.433594 2.238281-2.105469 3.398437zm0 0"/><path d="m316.175781 390c.671875-1.152344 1.238281-2.335938 1.871094-3.519531-1.902344-.992188-4.253906-.351563-5.328125 1.519531-1.09375 1.871094-.488281 4.238281 1.34375 5.375.714844-1.117188 1.457031-2.214844 2.113281-3.375zm0 0"/><path d="m45.054688 277.703125c-.34375 1.28125-.589844 2.578125-.894532 3.855469 2.085938.488281 4.191406-.75 4.761719-2.816406.558594-2.125-.640625-4.230469-2.707031-4.863282-.382813 1.289063-.816406 2.546875-1.160156 3.824219zm0 0"/><path d="m330.960938 354.304688c.359374-1.289063.597656-2.578126.902343-3.890626-2.101562-.460937-4.199219.769532-4.757812 2.851563-.570313 2.09375.628906 4.222656 2.695312 4.839844.390625-1.257813.832031-2.511719 1.160157-3.800781zm0 0"/><path d="m40.015625 316.007812c0 1.328126.097656 2.640626.136719 3.960938 2.144531-.082031 3.847656-1.816406 3.863281-3.953125-.007813-2.191406-1.71875-3.917969-3.871094-4-.023437 1.34375-.128906 2.664063-.128906 3.992187zm0 0"/><path d="m336.007812 316c.007813-1.34375-.085937-2.648438-.136718-3.992188-2.152344.105469-3.863282 1.832032-3.855469 3.984376-.007813 2.167968 1.703125 3.917968 3.847656 3.984374.066407-1.320312.160157-2.648437.144531-3.976562zm0 0"/><path d="m45.0625 354.3125c.34375 1.28125.777344 2.519531 1.152344 3.792969 2.050781-.632813 3.25-2.753907 2.722656-4.824219-.578125-2.121094-2.679688-3.34375-4.785156-2.855469.328125 1.300781.566406 2.597657.910156 3.886719zm0 0"/><path d="m330.960938 277.695312c-.335938-1.304687-.769532-2.535156-1.160157-3.824218-2.046875.65625-3.265625 2.769531-2.695312 4.839844.550781 2.097656 2.65625 3.351562 4.75 2.847656-.28125-1.277344-.535157-2.589844-.894531-3.863282zm0 0"/><path d="m59.847656 390c.664063 1.152344 1.398438 2.238281 2.089844 3.367188 1.824219-1.144532 2.429688-3.503907 1.382812-5.359376-1.113281-1.894531-3.457031-2.535156-5.359374-1.519531.65625 1.167969 1.214843 2.351563 1.886718 3.511719zm0 0"/><path d="m316.175781 242c-.664062-1.167969-1.398437-2.257812-2.113281-3.390625-1.804688 1.167969-2.4375 3.511719-1.34375 5.375 1.074219 1.878906 3.433594 2.542969 5.320312 1.519531-.589843-1.167968-1.191406-2.359375-1.863281-3.503906zm0 0"/><path d="m83.367188 420.640625c.945312.933594 1.9375 1.816406 2.890624 2.71875 1.460938-1.566406 1.445313-4.015625-.050781-5.527344-1.558593-1.542969-4-1.558593-5.566406-.089843.925781.960937 1.785156 1.960937 2.726563 2.898437zm0 0"/><path d="m292.664062 211.34375c-.945312-.953125-1.9375-1.816406-2.910156-2.726562-1.449218 1.589843-1.449218 4.023437.085938 5.535156 1.519531 1.542968 3.976562 1.574218 5.535156.09375-.878906-.972656-1.773438-1.972656-2.710938-2.902344zm0 0"/><path d="m114.015625 444.160156c1.160156.664063 2.34375 1.246094 3.503906 1.871094 1-1.886719.351563-4.246094-1.480469-5.328125-1.910156-1.09375-4.269531-.480469-5.40625 1.359375 1.152344.691406 2.222657 1.433594 3.382813 2.097656zm0 0"/><path d="m262.007812 187.824219c-1.160156-.679688-2.335937-1.238281-3.511718-1.871094-.984375 1.910156-.359375 4.253906 1.511718 5.320313 1.871094 1.109374 4.25.503906 5.375-1.34375-1.109374-.722657-2.222656-1.449219-3.375-2.105469zm0 0"/><path d="m149.710938 458.9375c1.289062.34375 2.585937.597656 3.855468.902344.480469-2.085938-.757812-4.191406-2.804687-4.769532-2.136719-.558593-4.25.648438-4.867188 2.714844 1.289063.375 2.53125.808594 3.816407 1.152344zm0 0"/><path d="m226.3125 173.03125c-1.289062-.351562-2.578125-.589844-3.878906-.894531-.457032 2.101562.757812 4.199219 2.839844 4.742187 2.09375.59375 4.230468-.605468 4.839843-2.6875-1.257812-.398437-2.519531-.824218-3.800781-1.160156zm0 0"/></g><path d="m301.40625 318.832031c-1.558594-1.558593-1.589844-4.128906-.023438-5.6875 1.5625-1.558593 4.066407-1.59375 5.617188-.03125l.0625.0625c1.5625 1.550781 1.5625 4.097657 0 5.65625-1.558594 1.558594-4.09375 1.558594-5.65625 0zm0 0" fill="#ccd1d9"/><path d="m69.398438 318.832031c-1.558594-1.558593-1.589844-4.128906-.023438-5.6875 1.5625-1.558593 4.066406-1.59375 5.617188-.03125l.0625.0625c1.5625 1.550781 1.5625 4.097657 0 5.65625-1.558594 1.558594-4.101563 1.558594-5.65625 0zm0 0" fill="#ccd1d9"/><path d="m285.855469 260.832031c-1.558594-1.558593-1.589844-4.128906-.03125-5.6875 1.558593-1.558593 4.070312-1.59375 5.625-.03125l.0625.0625c1.550781 1.550781 1.558593 4.097657 0 5.65625-1.558594 1.558594-4.097657 1.558594-5.65625 0zm0 0" fill="#ccd1d9"/><path d="m84.9375 376.832031c-1.5625-1.566406-1.59375-4.128906-.027344-5.6875 1.5625-1.558593 4.066406-1.59375 5.617188-.03125l.066406.054688c1.558594 1.558593 1.558594 4.097656 0 5.664062-1.5625 1.566407-4.089844 1.558594-5.65625 0zm0 0" fill="#ccd1d9"/><path d="m243.40625 218.367188c-1.566406-1.558594-1.589844-4.121094-.03125-5.679688 1.5625-1.558594 4.066406-1.589844 5.625-.039062l.0625.0625c1.554688 1.5625 1.5625 4.097656 0 5.65625-1.566406 1.5625-4.101562 1.5625-5.65625 0zm0 0" fill="#ccd1d9"/><path d="m127.40625 419.289062c-1.558594-1.5625-1.589844-4.128906-.03125-5.6875 1.5625-1.5625 4.074219-1.59375 5.625-.035156l.0625.066406c1.554688 1.550782 1.5625 4.09375 0 5.65625-1.558594 1.558594-4.101562 1.550782-5.65625 0zm0 0" fill="#ccd1d9"/><path d="m185.398438 202.832031c-1.558594-1.558593-1.589844-4.128906-.03125-5.6875 1.5625-1.558593 4.074218-1.585937 5.625-.03125l.0625.0625c1.554687 1.550781 1.5625 4.097657 0 5.65625-1.558594 1.558594-4.101563 1.558594-5.65625 0zm0 0" fill="#ccd1d9"/><path d="m185.40625 434.832031c-1.566406-1.558593-1.589844-4.128906-.03125-5.6875 1.5625-1.558593 4.066406-1.585937 5.625-.03125l.0625.0625c1.554688 1.550781 1.5625 4.097657 0 5.65625-1.558594 1.558594-4.101562 1.550781-5.65625 0zm0 0" fill="#ccd1d9"/><path d="m127.40625 218.367188c-1.558594-1.558594-1.589844-4.121094-.03125-5.679688 1.5625-1.558594 4.074219-1.589844 5.625-.039062l.0625.0625c1.554688 1.5625 1.5625 4.097656 0 5.65625-1.558594 1.5625-4.101562 1.5625-5.65625 0zm0 0" fill="#ccd1d9"/><path d="m243.40625 419.289062c-1.566406-1.5625-1.589844-4.128906-.03125-5.6875 1.5625-1.5625 4.066406-1.59375 5.625-.035156l.0625.066406c1.554688 1.550782 1.5625 4.09375 0 5.65625-1.566406 1.558594-4.101562 1.550782-5.65625 0zm0 0" fill="#ccd1d9"/><path d="m84.9375 260.832031c-1.5625-1.558593-1.59375-4.128906-.027344-5.6875 1.5625-1.558593 4.066406-1.585937 5.617188-.03125l.066406.0625c1.558594 1.550781 1.558594 4.097657 0 5.65625-1.5625 1.558594-4.089844 1.558594-5.65625 0zm0 0" fill="#ccd1d9"/><path d="m285.855469 376.824219c-1.558594-1.558594-1.589844-4.121094-.03125-5.679688 1.558593-1.570312 4.0625-1.59375 5.625-.039062l.0625.0625c1.550781 1.550781 1.558593 4.097656 0 5.65625-1.558594 1.558593-4.097657 1.558593-5.65625 0zm0 0" fill="#ccd1d9"/><path d="m196.488281 307.519531c4.71875 4.632813 4.71875 12.234375 0 16.953125-2.328125 2.328125-5.359375 3.527344-8.488281 3.527344-3.039062 0-6.078125-1.199219-8.488281-3.519531-4.71875-4.71875-4.71875-12.320313 0-16.953125 4.71875-4.726563 12.328125-4.726563 16.976562-.007813zm0 0" fill="#656d78"/></svg>