<svg id="Capa_1" enable-background="new 0 0 512 512" height="512" viewBox="0 0 512 512" width="512" xmlns="http://www.w3.org/2000/svg"><path d="m485.668 500.445-1.256 1.255c-10.888 10.888-28.541 10.888-39.429 0l-86.986-86.986c-3.492-3.492-3.492-9.153 0-12.644l28.041-28.041c3.492-3.492 9.153-3.492 12.644 0l86.986 86.986c10.888 10.889 10.888 28.542 0 39.43z" fill="#a64c31"/><path d="m485.668 461.016-1.286-1.286c-1.239 2.251-2.806 4.37-4.714 6.278l-1.256 1.255c-10.888 10.888-28.541 10.888-39.429 0l-73.09-73.09-7.896 7.896c-3.492 3.492-3.492 9.153 0 12.644l86.986 86.986c10.888 10.888 28.541 10.888 39.429 0l1.256-1.255c10.888-10.887 10.888-28.54 0-39.428z" fill="#8a3e25"/><path d="m497 351.035h-482c-8.284 0-15-6.716-15-15v-294.583h512v294.583c0 8.284-6.716 15-15 15z" fill="#b3d8fb"/><path d="m430.659 41.452v294.106c0 8.548-6.93 15.478-15.478 15.478h81.341c8.548 0 15.478-6.93 15.478-15.478v-294.106z" fill="#89c6fc"/><ellipse cx="255.01" cy="271.042" fill="#b3d8fb" rx="175.444" ry="175.444" transform="matrix(.707 -.707 .707 .707 -116.965 259.705)"/><path d="m130.952 146.985c-55.223 55.223-65.924 138.097-32.127 204.05h312.369c33.797-65.953 23.096-148.827-32.127-204.05-68.515-68.515-179.6-68.515-248.115 0z" fill="#c1e2ff"/><path d="m205.998 102.559c38.733 3.967 76.399 20.78 106.077 50.458 68.515 68.515 68.515 179.6 0 248.115-21.657 21.657-47.57 36.46-75.045 44.426 50.687 5.192 103.201-11.621 142.038-50.458 68.515-68.515 68.515-179.6 0-248.115-46.859-46.858-113.625-61.66-173.07-44.426z" fill="#89c6fc"/><path d="m205.998 102.559c38.733 3.967 76.399 20.78 106.077 50.458 53.551 53.551 65.246 133.108 35.086 198.018h64.034c33.797-65.953 23.096-148.827-32.127-204.05-46.859-46.858-113.625-61.66-173.07-44.426z" fill="#b3d8fb"/><path d="m389.352 405.385c-74.077 74.077-194.609 74.077-268.686 0-74.076-74.076-74.076-194.608.001-268.685s194.609-74.077 268.685-.001c74.077 74.077 74.077 194.609 0 268.686zm-248.114-248.114c-62.734 62.734-62.734 164.81-.001 227.544 62.734 62.734 164.81 62.734 227.544 0s62.734-164.81 0-227.544c-62.733-62.735-164.809-62.735-227.543 0z" fill="#8c9ba6"/><path d="m244.723 81.428c45.169 2.427 89.631 20.844 124.059 55.271 74.077 74.077 74.077 194.609 0 268.686-34.427 34.427-78.887 52.844-124.055 55.271 52.02 2.795 104.977-15.622 144.626-55.271 74.077-74.077 74.077-194.609 0-268.686-39.65-39.65-92.609-58.067-144.63-55.271z" fill="#7c8b96"/><g fill="#0571f9"><path d="m189.184 283.416c0 18.241-10.148 29.235-29.718 29.235-23.797 0-28.267-15.825-28.267-24.402 0-7.369 3.382-12.08 9.422-12.08 7.127 0 8.939 5.557 8.939 11.476 0 5.678 2.658 9.785 9.664 9.785 6.523 0 10.147-4.832 10.147-14.254v-51.22c0-5.919 3.866-9.905 9.906-9.905s9.906 3.987 9.906 9.905v51.46z"/><path d="m247.651 221.566c28.509 0 43.972 18.966 43.972 44.455 0 24.523-14.255 46.63-43.972 46.63-31.167 0-43.972-20.295-43.972-46.63 0-25.49 15.463-44.455 43.972-44.455zm0 75.138c17.999 0 24.16-14.013 24.16-30.684s-7.973-28.509-24.16-28.509-24.16 11.838-24.16 28.509 5.557 30.684 24.16 30.684z"/><path d="m306.119 235.216c0-8.818 4.591-11.597 11.597-11.597h26.335c14.497 0 31.771 3.262 31.771 22.469 0 7.369-3.987 14.376-12.202 17.637v.242c9.182 2.415 15.221 8.938 15.221 20.899 0 18.24-14.858 25.73-32.012 25.73h-29.113c-7.006 0-11.597-2.779-11.597-11.597zm19.811 24.161h16.308c9.302 0 13.771-3.746 13.771-10.631 0-8.335-7.007-10.631-14.376-10.631h-15.703zm0 35.998h16.671c7.731 0 16.428-1.57 16.428-11.597 0-10.509-9.181-11.838-18.845-11.838h-14.254z"/></g><path d="m15 2.133h482c8.284 0 15 6.716 15 15v46.319h-512v-46.319c0-8.284 6.716-15 15-15z" fill="#0a81f9"/><path d="m430.659 63.452h81.341v-45.841c0-8.548-6.93-15.478-15.478-15.478h-65.863z" fill="#0571f9"/><circle cx="37.646" cy="33.567" fill="#fc6b55" r="10.114"/><circle cx="72.041" cy="33.567" fill="#fcb143" r="10.114"/><circle cx="106.435" cy="33.567" fill="#05e29a" r="10.114"/></svg>