<svg id="Capa_1" enable-background="new 0 0 512 512" height="512" viewBox="0 0 512 512" width="512" xmlns="http://www.w3.org/2000/svg"><g><path d="m506.149 365.415-10.288-10.29v-305.72c0-18.143-14.759-32.904-32.899-32.904h-430.063c-18.141.001-32.899 14.761-32.899 32.904v316.358c0 18.159 14.758 32.932 32.899 32.932h150.178l-6.16 31.368h-28.85c-18.046 0-32.727 14.671-32.727 32.703v20.449c0 6.772 5.51 12.283 12.282 12.283h250.639c6.756 0 12.253-5.51 12.253-12.283v-20.449c0-18.033-14.668-32.703-32.698-32.703h-28.874l-6.141-31.368h134.278l7.882 7.884c3.785 3.787 8.823 5.87 14.19 5.87h.029c5.364-.007 10.391-2.098 14.135-5.864l12.85-12.823c7.786-7.834 7.779-20.55-.016-28.347zm-148.333 79.648c9.759 0 17.698 7.942 17.698 17.703v17.732h-245.174v-17.732c0-9.762 7.953-17.703 17.727-17.703h34.998c.01 0 .02.001.03.001.011 0 .022-.001.033-.001h51.357c4.142 0 7.5-3.358 7.5-7.5s-3.358-7.5-7.5-7.5h-42.283l6.16-31.368h109.153l6.141 31.368h-44.179c-4.143 0-7.5 3.358-7.5 7.5s3.357 7.5 7.5 7.5h53.249c.011 0 .022.001.033.001.01 0 .02-.001.03-.001zm-44.046-61.368c-.005 0-.01 0-.015 0h-121.6c-.017 0-.033 0-.05 0h-159.206c-9.87 0-17.899-8.044-17.899-17.932v-316.358c0-9.872 8.029-17.904 17.899-17.904h430.063c9.87 0 17.899 8.032 17.899 17.904v290.716l-24.344-24.348v-246.749c0-7.089-5.767-12.856-12.855-12.856h-175.244c-4.143 0-7.5 3.358-7.5 7.5s3.357 7.5 7.5 7.5h173.099v237.559c-.129-.002-.255-.019-.385-.019-.01 0-.021 0-.03 0-5.363.007-10.391 2.098-14.135 5.864l-1.118 1.115-16.856-16.859c25.382-30.744 23.708-76.471-5.042-105.226-14.795-14.798-34.459-22.947-55.372-22.947-20.912 0-40.576 8.149-55.371 22.947-30.539 30.544-30.539 80.244 0 110.788 14.795 14.798 34.459 22.947 55.371 22.947 18.393 0 35.817-6.309 49.815-17.896l16.838 16.841-1.093 1.091c-.007.007-.015.014-.021.021-4.506 4.534-6.385 10.7-5.672 16.604h-354.102v-272.83h179.111c4.142 0 7.5-3.358 7.5-7.5s-3.358-7.5-7.5-7.5h-181.257c-7.088 0-12.854 5.767-12.854 12.856v277.121c0 7.089 5.767 12.856 12.854 12.856h365.192l24.691 24.695h-128.311zm34.81-71.356c-16.904 0-32.802-6.589-44.763-18.553-24.691-24.697-24.691-64.881 0-89.577 11.962-11.964 27.859-18.553 44.763-18.553 16.905 0 32.802 6.589 44.764 18.553 24.691 24.697 24.691 64.881 0 89.577-11.961 11.964-27.858 18.553-44.764 18.553zm146.967 70.827-12.85 12.823c-.934.94-2.191 1.458-3.539 1.461-.003 0-.005 0-.008 0-1.359 0-2.631-.524-3.583-1.476l-50.825-50.835-.001-.001-.001-.001c-1.93-1.929-1.925-5.204.006-7.157l6.256-6.243c.05-.047.103-.088.151-.137.047-.047.086-.098.131-.145l6.299-6.286c.934-.94 2.191-1.458 3.539-1.461h.008c1.359 0 2.632.524 3.584 1.476l38.338 38.346.008.008 12.48 12.482c1.933 1.933 1.926 5.214.007 7.146z"/><path d="m89.267 188.105 16.192.029c11.557 0 20.271-9.417 20.271-21.906v-46.798c0-4.142-3.358-7.5-7.5-7.5h-19.529c-4.142 0-7.5 3.358-7.5 7.5s3.358 7.5 7.5 7.5h12.029v39.298c0 .707-.148 6.906-5.258 6.906l-16.179-.029c-.004 0-.009 0-.014 0-4.135 0-7.492 3.349-7.499 7.487-.007 4.142 3.345 7.506 7.487 7.513z"/><path d="m174.096 188.134h3.436c14.651 0 26.57-11.921 26.57-26.574v-23.055c0-14.653-11.919-26.574-26.57-26.574h-3.436c-14.651 0-26.571 11.921-26.571 26.574v23.055c0 14.653 11.92 26.574 26.571 26.574zm-11.571-49.63c0-6.382 5.19-11.574 11.571-11.574h3.436c6.38 0 11.57 5.192 11.57 11.574v23.055c0 6.382-5.19 11.574-11.57 11.574h-3.436c-6.38 0-11.571-5.192-11.571-11.574z"/><path d="m224.095 122.352v27.666 27.695c0 5.747 4.675 10.421 10.42 10.421h24.626c11.872 0 21.531-9.66 21.531-21.534v-2.549c0-7.681-4.056-14.418-10.125-18.23 1.519-2.945 2.393-6.274 2.393-9.809v-2.549c0-11.873-9.659-21.534-21.531-21.534h-16.894c-5.746.001-10.42 4.676-10.42 10.423zm14.999 4.578h12.315c3.602 0 6.531 2.931 6.531 6.534v2.549c0 3.587-2.93 6.505-6.531 6.505h-12.315zm0 30.588h12.315 7.731c3.602 0 6.531 2.931 6.531 6.534v2.549c0 3.603-2.93 6.534-6.531 6.534h-20.046z"/><path d="m89.28 239.8h52.058c4.142 0 7.5-3.358 7.5-7.5s-3.358-7.5-7.5-7.5h-52.058c-4.142 0-7.5 3.358-7.5 7.5s3.358 7.5 7.5 7.5z"/><path d="m230.707 269.823h-141.427c-4.142 0-7.5 3.358-7.5 7.5s3.358 7.5 7.5 7.5h141.427c4.142 0 7.5-3.358 7.5-7.5s-3.358-7.5-7.5-7.5z"/></g></svg>