<?xml version="1.0" ?><svg style="enable-background:new 0 0 48 48;" version="1.1" viewBox="0 0 48 48" xml:space="preserve" xmlns="http://www.w3.org/2000/svg" xmlns:xlink="http://www.w3.org/1999/xlink"><g id="Padding__x26__Artboard"/><g id="Icons"><g><g><path d="M30.78491,13.47021H17.2146c-0.46729,0-0.84717,0.37988-0.84717,0.84766v19.3623     c0,0.37988,0.23486,0.69824,0.59814,0.80957c0.36621,0.11133,0.7373-0.01855,0.95068-0.33398l5.96143-8.79199     c0.07617-0.11328,0.16797-0.11328,0.24414,0l5.96191,8.79199c0.16309,0.24023,0.41846,0.37402,0.69238,0.37402     c0.08496,0,0.17139-0.0127,0.25781-0.04004c0.36377-0.11133,0.59863-0.42969,0.59863-0.80957v-19.3623     C31.63257,13.8501,31.2522,13.47021,30.78491,13.47021z M26.59058,16.47607h-1.04932c-0.19336,0-0.3501-0.15625-0.3501-0.34961     s0.15674-0.34961,0.3501-0.34961h1.04932c0.19336,0,0.3501,0.15625,0.3501,0.34961S26.78394,16.47607,26.59058,16.47607z      M24.19897,16.47607h-5.03516c-0.19336,0-0.3501-0.15625-0.3501-0.34961s0.15674-0.34961,0.3501-0.34961h5.03516     c0.19336,0,0.3501,0.15625,0.3501,0.34961S24.39233,16.47607,24.19897,16.47607z" style="fill:#303030;"/></g></g></g></svg>